<?xml version="1.0" standalone="no"?>
<!DOCTYPE svg PUBLIC "-//W3C//DTD SVG 20010904//EN"
 "http://www.w3.org/TR/2001/REC-SVG-20010904/DTD/svg10.dtd">
<svg version="1.0" xmlns="http://www.w3.org/2000/svg"
 width="2140.000000pt" height="564.000000pt" viewBox="0 0 2140.000000 564.000000"
 preserveAspectRatio="xMidYMid meet">

<g transform="translate(0.000000,564.000000) scale(0.100000,-0.100000)"
fill="#000000" stroke="none">
<path d="M17575 5629 c-287 -19 -582 -65 -860 -134 -1037 -256 -1850 -806
-2310 -1565 -200 -329 -295 -686 -295 -1110 0 -664 241 -1191 787 -1720 805
-781 2079 -1190 3380 -1085 1068 86 1949 448 2582 1060 139 134 465 512 506
586 27 49 30 63 30 145 0 83 -2 93 -27 126 -33 43 -111 84 -187 98 -34 6 -382
10 -935 10 -832 0 -884 -1 -917 -18 -56 -29 -111 -78 -221 -201 -188 -208
-456 -398 -663 -469 -523 -179 -1098 -91 -1538 234 -42 31 -128 109 -190 173
-213 220 -343 458 -409 752 -20 90 -23 131 -23 304 0 225 15 316 81 508 170
486 587 864 1094 992 137 34 232 45 400 45 447 0 863 -174 1237 -516 48 -44
99 -87 113 -95 21 -12 166 -14 885 -17 895 -3 976 0 1063 38 127 56 177 194
113 317 -44 87 -320 388 -501 547 -672 593 -1498 915 -2549 996 -153 11 -467
11 -646 -1z"/>
<path d="M4743 5485 c-146 -32 -262 -125 -332 -265 -80 -164 -74 -27 -81
-1855 -5 -1531 -7 -1634 -24 -1690 -75 -249 -237 -427 -445 -489 -48 -14 -142
-16 -782 -16 -694 0 -730 1 -790 20 -129 39 -241 127 -325 252 -95 142 -122
236 -134 463 -15 284 -57 367 -216 427 -59 23 -60 23 -836 26 l-778 3 0 -291
c0 -160 5 -334 11 -388 67 -617 426 -1145 954 -1402 180 -88 351 -134 559
-150 159 -12 2943 -12 3102 0 346 27 644 151 922 384 289 243 502 618 584
1027 l23 114 3 1923 2 1922 -677 -1 c-531 0 -692 -4 -740 -14z"/>
<path d="M9510 5477 c-111 -37 -230 -125 -290 -212 -46 -67 -2922 -4887 -2936
-4922 -19 -45 -17 -119 3 -154 9 -16 33 -37 53 -46 32 -17 89 -18 723 -21 441
-2 709 1 745 7 31 6 95 30 142 53 69 34 101 58 169 127 80 82 124 152 1068
1681 663 1074 999 1609 1027 1637 85 82 169 80 257 -5 34 -33 166 -234 434
-660 212 -337 395 -632 406 -655 25 -48 28 -109 8 -133 -8 -10 -32 -25 -54
-35 -37 -17 -81 -19 -630 -19 -708 0 -696 1 -861 -116 -79 -56 -101 -87 -277
-390 -188 -325 -189 -327 -195 -403 -6 -79 12 -118 71 -152 l42 -24 1275 -5
1275 -5 60 -24 c107 -43 161 -107 330 -388 167 -279 222 -344 357 -421 129
-73 126 -73 912 -70 643 3 693 4 724 21 78 43 92 127 39 229 -53 100 -2895
4858 -2934 4910 -38 52 -131 127 -208 166 -104 52 -93 52 -910 52 -759 -1
-760 -1 -825 -23z"/>
</g>
</svg>
