<svg xmlns="http://www.w3.org/2000/svg" width="2853.333" height="752" viewBox="0 0 2140 564"><path d="M1757.5 1.1c-28.7 1.9-58.2 6.5-86 13.4-103.7 25.6-185 80.6-231 156.5-20 32.9-29.5 68.6-29.5 111 0 66.4 24.1 119.1 78.7 172 80.5 78.1 207.9 119 338 108.5 106.8-8.6 194.9-44.8 258.2-106 13.9-13.4 46.5-51.2 50.6-58.6 2.7-4.9 3-6.3 3-14.5 0-8.3-.2-9.3-2.7-12.6-3.3-4.3-11.1-8.4-18.7-9.8-3.4-.6-38.2-1-93.5-1-83.2 0-88.4.1-91.7 1.8-5.6 2.9-11.1 7.8-22.1 20.1-18.8 20.8-45.6 39.8-66.3 46.9-52.3 17.9-109.8 9.1-153.8-23.4-4.2-3.1-12.8-10.9-19-17.3-21.3-22-34.3-45.8-40.9-75.2-2-9-2.3-13.1-2.3-30.4 0-22.5 1.5-31.6 8.1-50.8 17-48.6 58.7-86.4 109.4-99.2 13.7-3.4 23.2-4.5 40-4.5 44.7 0 86.3 17.4 123.7 51.6 4.8 4.4 9.9 8.7 11.3 9.5 2.1 1.2 16.6 1.4 88.5 1.7 89.5.3 97.6 0 106.3-3.8 12.7-5.6 17.7-19.4 11.3-31.7-4.4-8.7-32-38.8-50.1-54.7-67.2-59.3-149.8-91.5-254.9-99.6-15.3-1.1-46.7-1.1-64.6.1M474.3 15.5C459.7 18.7 448.1 28 441.1 42c-8 16.4-7.4 2.7-8.1 185.5-.5 153.1-.7 163.4-2.4 169-7.5 24.9-23.7 42.7-44.5 48.9-4.8 1.4-14.2 1.6-78.2 1.6-69.4 0-73-.1-79-2-12.9-3.9-24.1-12.7-32.5-25.2-9.5-14.2-12.2-23.6-13.4-46.3-1.5-28.4-5.7-36.7-21.6-42.7-5.9-2.3-6-2.3-83.6-2.6L0 327.9V357c0 16 .5 33.4 1.1 38.8C7.8 457.5 43.7 510.3 96.5 536c18 8.8 35.1 13.4 55.9 15 15.9 1.2 294.3 1.2 310.2 0 34.6-2.7 64.4-15.1 92.2-38.4 28.9-24.3 50.2-61.8 58.4-102.7l2.3-11.4.3-192.3L616 14l-67.7.1c-53.1 0-69.2.4-74 1.4m476.7.8c-11.1 3.7-23 12.5-29 21.2-4.6 6.7-292.2 488.7-293.6 492.2-1.9 4.5-1.7 11.9.3 15.4.9 1.6 3.3 3.7 5.3 4.6 3.2 1.7 8.9 1.8 72.3 2.1 44.1.2 70.9-.1 74.5-.7 3.1-.6 9.5-3 14.2-5.3 6.9-3.4 10.1-5.8 16.9-12.7 8-8.2 12.4-15.2 106.8-168.1 66.3-107.4 99.9-160.9 102.7-163.7 8.5-8.2 16.9-8 25.7.5 3.4 3.3 16.6 23.4 43.4 66 21.2 33.7 39.5 63.2 40.6 65.5 2.5 4.8 2.8 10.9.8 13.3-.8 1-3.2 2.5-5.4 3.5-3.7 1.7-8.1 1.9-63 1.9-70.8 0-69.6-.1-86.1 11.6-7.9 5.6-10.1 8.7-27.7 39-18.8 32.5-18.9 32.7-19.5 40.3-.6 7.9 1.2 11.8 7.1 15.2l4.2 2.4 127.5.5 127.5.5 6 2.4c10.7 4.3 16.1 10.7 33 38.8 16.7 27.9 22.2 34.4 35.7 42.1 12.9 7.3 12.6 7.3 91.2 7 64.3-.3 69.3-.4 72.4-2.1 7.8-4.3 9.2-12.7 3.9-22.9-5.3-10-289.5-485.8-293.4-491-3.8-5.2-13.1-12.7-20.8-16.6-10.4-5.2-9.3-5.2-91-5.2-75.9.1-76 .1-82.5 2.3"/></svg>